<svg width="21" height="29" viewBox="0 0 21 29" fill="none" xmlns="http://www.w3.org/2000/svg">
<path d="M11.4228 9.396C8.03878 9.396 5.56678 9.024 4.00678 8.28C2.47078 7.536 1.70278 6.144 1.70278 4.104C1.70278 3.384 1.82278 2.364 2.06278 1.044C3.71878 1.74 5.68678 2.304 7.96678 2.736C10.2468 3.144 12.0348 3.348 13.3308 3.348C14.2428 1.74 15.5028 0.935999 17.1108 0.935999C18.1668 0.935999 18.9828 1.272 19.5588 1.944C20.1588 2.592 20.4588 3.432 20.4588 4.464C20.4588 5.472 20.0628 6.42 19.2708 7.308L18.0108 17.64C17.7948 19.488 17.3148 21.144 16.5708 22.608C15.8508 24.072 14.9868 25.224 13.9788 26.064C11.9388 27.768 9.83878 28.62 7.67878 28.62C5.51878 28.62 3.79078 28.14 2.49478 27.18C1.19878 26.244 0.550781 25.104 0.550781 23.76C0.550781 22.392 0.946781 21.324 1.73878 20.556C2.53078 19.764 3.45478 19.368 4.51078 19.368C5.59078 19.368 6.58678 19.74 7.49878 20.484C8.41078 21.228 9.10678 22.344 9.58678 23.832L10.4868 23.112C9.83878 21.312 9.51478 19.872 9.51478 18.792C9.51478 18.192 9.74278 16.812 10.1988 14.652C10.6548 12.492 11.0628 10.74 11.4228 9.396Z" fill="black"/>
</svg>
